<svg xmlns="http://www.w3.org/2000/svg" version="1.1" viewBox="0 0 1020 605" width="2040" height="1210"><g transform="translate(30,40)"><g class="x-axis" transform="translate(0, 525)" style="font-size: 12px;" fill="none" font-size="10" font-family="sans-serif" text-anchor="middle"><path class="domain" stroke="currentColor" d="M0.5,6V0.5H960.5V6"></path><g class="tick" opacity="1" transform="translate(0.5,0)"><line stroke="currentColor" y2="6"></line><text fill="currentColor" y="9" dy="0.71em">-3.0</text></g><g class="tick" opacity="1" transform="translate(80.5,0)"><line stroke="currentColor" y2="6"></line><text fill="currentColor" y="9" dy="0.71em">-2.5</text></g><g class="tick" opacity="1" transform="translate(160.5,0)"><line stroke="currentColor" y2="6"></line><text fill="currentColor" y="9" dy="0.71em">-2.0</text></g><g class="tick" opacity="1" transform="translate(240.5,0)"><line stroke="currentColor" y2="6"></line><text fill="currentColor" y="9" dy="0.71em">-1.5</text></g><g class="tick" opacity="1" transform="translate(320.5,0)"><line stroke="currentColor" y2="6"></line><text fill="currentColor" y="9" dy="0.71em">-1.0</text></g><g class="tick" opacity="1" transform="translate(400.5,0)"><line stroke="currentColor" y2="6"></line><text fill="currentColor" y="9" dy="0.71em">-0.5</text></g><g class="tick" opacity="1" transform="translate(480.5,0)"><line stroke="currentColor" y2="6"></line><text fill="currentColor" y="9" dy="0.71em">0.0</text></g><g class="tick" opacity="1" transform="translate(560.5,0)"><line stroke="currentColor" y2="6"></line><text fill="currentColor" y="9" dy="0.71em">0.5</text></g><g class="tick" opacity="1" transform="translate(640.5,0)"><line stroke="currentColor" y2="6"></line><text fill="currentColor" y="9" dy="0.71em">1.0</text></g><g class="tick" opacity="1" transform="translate(720.5,0)"><line stroke="currentColor" y2="6"></line><text fill="currentColor" y="9" dy="0.71em">1.5</text></g><g class="tick" opacity="1" transform="translate(800.5,0)"><line stroke="currentColor" y2="6"></line><text fill="currentColor" y="9" dy="0.71em">2.0</text></g><g class="tick" opacity="1" transform="translate(880.5,0)"><line stroke="currentColor" y2="6"></line><text fill="currentColor" y="9" dy="0.71em">2.5</text></g><g class="tick" opacity="1" transform="translate(960.5,0)"><line stroke="currentColor" y2="6"></line><text fill="currentColor" y="9" dy="0.71em">3.0</text></g><text class="x-label" x="480" y="30" fill="#000">NES</text></g><g class="y-axis" style="font-size: 12px;" transform="translate(480,0)" fill="none" font-size="10" font-family="sans-serif" text-anchor="end"><path class="domain" stroke="currentColor" d="M0.5,0.5V525.5"></path><g class="tick" opacity="1" transform="translate(0,15.5)"><text fill="currentColor" x="-6" dy="0.32em">RNA processing</text></g><g class="tick" opacity="1" transform="translate(0,41.5)"><text fill="currentColor" x="-6" dy="0.32em">RNA splicing, via transesterification reactions</text></g><g class="tick" opacity="1" transform="translate(0,67.5)"><text fill="currentColor" x="-6" dy="0.32em">RNA splicing, via transesterification reactions with bulged adenosine as nucleophile</text></g><g class="tick" opacity="1" transform="translate(0,93.5)"><text fill="currentColor" x="-6" dy="0.32em">mRNA splicing, via spliceosome</text></g><g class="tick" opacity="1" transform="translate(0,119.5)"><text fill="currentColor" x="-6" dy="0.32em">rRNA processing</text></g><g class="tick" opacity="1" transform="translate(0,145.5)"><text fill="currentColor" x="-6" dy="0.32em">regulation of viral genome replication</text></g><g class="tick" opacity="1" transform="translate(0,171.5)"><text fill="currentColor" x="-6" dy="0.32em">mRNA processing</text></g><g class="tick" opacity="1" transform="translate(0,197.5)"><text fill="currentColor" x="-6" dy="0.32em">RNA metabolic process</text></g><g class="tick" opacity="1" transform="translate(0,223.5)"><text fill="currentColor" x="-6" dy="0.32em">nuclear-transcribed mRNA catabolic process, nonsense-mediated decay</text></g><g class="tick" opacity="1" transform="translate(0,249.5)"><text fill="currentColor" x="-6" dy="0.32em">cotranslational protein targeting to membrane</text></g><g class="tick" opacity="1" transform="translate(0,275.5)"><text fill="currentColor" x="9" dy="0.32em" style="text-anchor: start;">regulation of mitochondrial membrane permeability</text></g><g class="tick" opacity="1" transform="translate(0,301.5)"><text fill="currentColor" x="9" dy="0.32em" style="text-anchor: start;">collagen fibril organization</text></g><g class="tick" opacity="1" transform="translate(0,327.5)"><text fill="currentColor" x="9" dy="0.32em" style="text-anchor: start;">cellular polysaccharide biosynthetic process</text></g><g class="tick" opacity="1" transform="translate(0,353.5)"><text fill="currentColor" x="9" dy="0.32em" style="text-anchor: start;">calcium ion transmembrane transport</text></g><g class="tick" opacity="1" transform="translate(0,379.5)"><text fill="currentColor" x="9" dy="0.32em" style="text-anchor: start;">regulation of membrane permeability</text></g><g class="tick" opacity="1" transform="translate(0,405.5)"><text fill="currentColor" x="9" dy="0.32em" style="text-anchor: start;">sequestering of calcium ion</text></g><g class="tick" opacity="1" transform="translate(0,431.5)"><text fill="currentColor" x="9" dy="0.32em" style="text-anchor: start;">regulation of sequestering of calcium ion</text></g><g class="tick" opacity="1" transform="translate(0,457.5)"><text fill="currentColor" x="9" dy="0.32em" style="text-anchor: start;">negative regulation of sequestering of calcium ion</text></g><g class="tick" opacity="1" transform="translate(0,483.5)"><text fill="currentColor" x="9" dy="0.32em" style="text-anchor: start;">phospholipid metabolic process</text></g><g class="tick" opacity="1" transform="translate(0,509.5)"><text fill="currentColor" x="9" dy="0.32em" style="text-anchor: start;">negative regulation of dephosphorylation</text></g></g><rect class="wg-bar" fill="steelblue" x="480" y="4" transform="translate(0,0)" width="461.84897463010566" height="23"></rect><rect class="wg-bar" fill="steelblue" x="480" y="30" transform="translate(0,0)" width="421.0619777455969" height="23"></rect><rect class="wg-bar" fill="steelblue" x="480" y="56" transform="translate(0,0)" width="410.5327197083968" height="23"></rect><rect class="wg-bar" fill="steelblue" x="480" y="82" transform="translate(0,0)" width="410.5327197083968" height="23"></rect><rect class="wg-bar" fill="steelblue" x="480" y="108" transform="translate(0,0)" width="400.7101641725616" height="23"></rect><rect class="wg-bar" fill="steelblue" x="480" y="134" transform="translate(0,0)" width="398.2448070417024" height="23"></rect><rect class="wg-bar" fill="steelblue" x="480" y="160" transform="translate(0,0)" width="398.0406321170881" height="23"></rect><rect class="wg-bar" fill="steelblue" x="480" y="186" transform="translate(0,0)" width="395.915654615568" height="23"></rect><rect class="wg-bar" fill="steelblue" x="480" y="212" transform="translate(0,0)" width="392.50677213444806" height="23"></rect><rect class="wg-bar" fill="steelblue" x="480" y="238" transform="translate(0,0)" width="388.7507995779265" height="23"></rect><rect class="wg-bar" fill="darkorange" x="135.8598068344368" y="264" transform="translate(0,0)" width="344.14019316556323" height="23"></rect><rect class="wg-bar" fill="darkorange" x="135.05051197578558" y="290" transform="translate(0,0)" width="344.9494880242144" height="23"></rect><rect class="wg-bar" fill="darkorange" x="126.52044299603835" y="316" transform="translate(0,0)" width="353.47955700396165" height="23"></rect><rect class="wg-bar" fill="darkorange" x="122.32261154849283" y="342" transform="translate(0,0)" width="357.67738845150717" height="23"></rect><rect class="wg-bar" fill="darkorange" x="118.36998439138881" y="368" transform="translate(0,0)" width="361.6300156086112" height="23"></rect><rect class="wg-bar" fill="darkorange" x="109.38482282197441" y="394" transform="translate(0,0)" width="370.6151771780256" height="23"></rect><rect class="wg-bar" fill="darkorange" x="103.39849096456483" y="420" transform="translate(0,0)" width="376.6015090354352" height="23"></rect><rect class="wg-bar" fill="darkorange" x="103.39849096456483" y="446" transform="translate(0,0)" width="376.6015090354352" height="23"></rect><rect class="wg-bar" fill="darkorange" x="92.32103470427518" y="472" transform="translate(0,0)" width="387.6789652957248" height="23"></rect><rect class="wg-bar" fill="darkorange" x="44.15453769357441" y="498" transform="translate(0,0)" width="435.8454623064256" height="23"></rect></g><g class="legend" font-size="12"><rect fill="steelblue" x="0" y="0" width="20" height="10"></rect><rect fill="lightsteelblue" x="120" y="0" width="20" height="10"></rect><rect fill="darkorange" x="22" y="0" width="20" height="10"></rect><rect fill="#ffcf76" x="142" y="0" width="20" height="10"></rect><text x="45" y="10">FDR ≤ 0.05</text><text x="165" y="10">FDR &gt; 0.05</text></g></svg>